<svg enable-background="new 0 0 204.26 245.63" viewBox="0 0 204.26 245.63" xmlns="http://www.w3.org/2000/svg" xmlns:xlink="http://www.w3.org/1999/xlink"><linearGradient id="a" gradientUnits="userSpaceOnUse" x1="185.3851" x2="77.1792" y1="59.4364" y2="59.4364"><stop offset="0" stop-color="#b2876f"/><stop offset="1" stop-color="#896954"/></linearGradient><path d="m178.51 25.9-46.24 8.8c-13.24-16.26-37.15-18.7-53.41-5.46-6.91 5.63-11.62 13.52-13.3 22.28h-44.77c2.03-20.2 11.33-38.27 25.25-51.52h114.11c7.68 7.32 13.95 16.1 18.36 25.9z" fill="#998675"/><path d="m178.55 93.69v.1c-4.06 9.04-9.69 17.21-16.56 24.16h-117.8c-13.3-13.48-21.99-31.49-23.56-51.52h45.04c4.29 20.52 24.39 33.68 44.91 29.41 7.69-1.61 14.68-5.55 20.03-11.29z" fill="#b58761"/><path d="m185.28 60.96-3.91 20.46c-.19.44-.66.7-1.12.61l-55.41-10.17c-6.86 12.27-22.36 16.65-34.63 9.79s-16.65-22.36-9.79-34.63 22.36-16.65 34.63-9.79c4.62 2.58 8.32 6.55 10.59 11.33l54.57-10.02c.49-.11.97.15 1.16.61l3.91 20.46c.14.44.14.91 0 1.35z" fill="url(#a)"/><g fill="#997361"><path d="m0 245.62v-73.83h35.52c11.63 0 17.44 5.82 17.44 17.44v14.23c0 11.56-5.81 17.33-17.44 17.33h-22.47v24.82h-13.05zm13.05-36.7h22.15c3.14 0 4.71-1.57 4.71-4.71v-15.94c0-3.07-1.57-4.6-4.71-4.6h-22.15z"/><path d="m66.02 228.72v-22.36c0-11.27 5.63-16.91 16.91-16.91h14.97c11.2 0 16.8 5.64 16.8 16.91v22.36c0 11.27-5.6 16.91-16.8 16.91h-14.98c-11.27-.01-16.9-5.64-16.9-16.91zm12.52 1.07c0 3.28 1.64 4.92 4.92 4.92h13.8c3.28 0 4.92-1.64 4.92-4.92v-24.5c0-3.28-1.64-4.92-4.92-4.92h-13.8c-3.28 0-4.92 1.64-4.92 4.92z"/><path d="m129.47 245.62v-49.22c2.57-4.64 7.49-6.96 14.77-6.96h11.24l5.67 4.17v6.74h-14.02c-2.43 0-4.14.61-5.14 1.82v43.44z"/><path d="m171.52 228.72v-56.92h12.52v17.66h19.15v10.91h-19.15v29.42c0 3.28 1.64 4.92 4.92 4.92h15.3v6.74l-5.67 4.17h-10.17c-11.27 0-16.9-5.63-16.9-16.9z"/></g></svg>