<?xml version="1.0" encoding="UTF-8"?>
<svg xmlns="http://www.w3.org/2000/svg" version="1.1" viewBox="0 0 204.3 73.8">
  <!-- Generator: Adobe Illustrator 28.6.0, SVG Export Plug-In . SVG Version: 1.2.0 Build 709)  -->
  <g>
    <g id="Layer_1">
      <g>
        <path fill="#997361" d="M0,73.8V0h35.5c11.6,0,17.4,5.8,17.4,17.4v14.2c0,11.6-5.8,17.3-17.4,17.3H13.1v24.8H0ZM13.1,37.1h22.2c3.1,0,4.7-1.6,4.7-4.7v-15.9c0-3.1-1.6-4.6-4.7-4.6H13.1v25.3Z"/>
        <path fill="#997361" d="M66,56.9v-22.4c0-11.3,5.6-16.9,16.9-16.9h15c11.2,0,16.8,5.6,16.8,16.9v22.4c0,11.3-5.6,16.9-16.8,16.9h-15c-11.3,0-16.9-5.6-16.9-16.9ZM78.5,58c0,3.3,1.6,4.9,4.9,4.9h13.8c3.3,0,4.9-1.6,4.9-4.9v-24.5c0-3.3-1.6-4.9-4.9-4.9h-13.8c-3.3,0-4.9,1.6-4.9,4.9v24.5Z"/>
        <path fill="#997361" d="M129.5,73.8V24.6c2.6-4.6,7.5-7,14.8-7h11.2l5.7,4.2v6.7h-14c-2.4,0-4.1.6-5.1,1.8v43.4h-12.5Z"/>
        <path fill="#997361" d="M171.5,56.9V0h12.5v17.7h19.1v10.9h-19.1v29.4c0,3.3,1.6,4.9,4.9,4.9h15.3v6.7l-5.7,4.2h-10.2c-11.3,0-16.9-5.6-16.9-16.9Z"/>
      </g>
    </g>
  </g>
</svg>
