<svg viewBox="0 0 204.26 245.75" xmlns="http://www.w3.org/2000/svg" xmlns:xlink="http://www.w3.org/1999/xlink"><linearGradient id="a" gradientTransform="matrix(1 0 0 -1 -12 246.63)" gradientUnits="userSpaceOnUse" x1="196.58" x2="87.73" y1="187.6" y2="187.6"><stop offset="0" stop-color="#b2876f"/><stop offset="1" stop-color="#896954"/></linearGradient><path d="m177.36 26.05-46.51 8.85a38.18 38.18 0 0 0 -67.1 16.92h-45a82.92 82.92 0 0 1 25.36-51.82h114.77a83.11 83.11 0 0 1 18.48 26.05z" fill="#998675"/><path d="m177.4 94.23v.1a82.82 82.82 0 0 1 -16.66 24.3h-118.49a82.87 82.87 0 0 1 -23.69-51.81h45.3a38.18 38.18 0 0 0 65.32 18.18z" fill="#b58761"/><path d="m184.47 60.55-3.93 20.59a1 1 0 0 1 -1.13.61l-55.74-10.23a25.6 25.6 0 1 1 .8-23.42l54.89-10.1a1 1 0 0 1 1.18.62l3.93 20.57a2.22 2.22 0 0 1 0 1.36z" fill="url(#a)"/><g fill="#997361"><path d="m0 245.75v-73.83h35.52q17.48 0 17.48 17.44v14.23q0 17.34-17.44 17.34h-22.51v24.82zm13.05-36.7h22.15q4.71 0 4.71-4.71v-15.94c0-3.06-1.57-4.6-4.71-4.6h-22.15z"/><path d="m66 228.85v-22.37q0-16.9 16.9-16.9h15q16.8 0 16.8 16.9v22.37q0 16.91-16.8 16.9h-15q-16.9 0-16.9-16.9zm12.52 1.07q0 4.92 4.92 4.92h13.8q4.92 0 4.92-4.92v-24.51q0-4.92-4.92-4.92h-13.78q-4.92 0-4.92 4.92z"/><path d="m129.47 245.75v-49.22q3.85-6.94 14.76-6.95h11.24l5.67 4.17v6.74h-14q-3.63 0-5.13 1.82v43.44z"/><path d="m171.52 228.85v-56.93h12.48v17.66h19.15v10.91h-19.15v29.43q0 4.92 4.92 4.92h15.3v6.74l-5.67 4.17h-10.13q-16.9 0-16.9-16.9z"/></g></svg>