<svg enable-background="new 0 0 204.26 73.84" viewBox="0 0 204.26 73.84" xmlns="http://www.w3.org/2000/svg"><g fill="#fff"><path d="m0 73.83v-73.83h35.52c11.63 0 17.44 5.82 17.44 17.44v14.23c0 11.56-5.81 17.33-17.44 17.33h-22.47v24.82h-13.05zm13.05-36.7h22.15c3.14 0 4.71-1.57 4.71-4.71v-15.94c0-3.07-1.57-4.6-4.71-4.6h-22.15z"/><path d="m66.02 56.93v-22.36c0-11.27 5.63-16.91 16.91-16.91h14.97c11.2 0 16.8 5.64 16.8 16.91v22.36c0 11.27-5.6 16.91-16.8 16.91h-14.98c-11.27-.01-16.9-5.64-16.9-16.91zm12.52 1.07c0 3.28 1.64 4.92 4.92 4.92h13.8c3.28 0 4.92-1.64 4.92-4.92v-24.5c0-3.28-1.64-4.92-4.92-4.92h-13.8c-3.28 0-4.92 1.64-4.92 4.92z"/><path d="m129.47 73.83v-49.22c2.57-4.64 7.49-6.96 14.77-6.96h11.24l5.67 4.17v6.74h-14.02c-2.43 0-4.14.61-5.14 1.82v43.44z"/><path d="m171.52 56.93v-56.92h12.52v17.66h19.15v10.91h-19.15v29.42c0 3.28 1.64 4.92 4.92 4.92h15.3v6.74l-5.67 4.17h-10.17c-11.27 0-16.9-5.63-16.9-16.9z"/></g></svg>